<?xml version="1.0" standalone="no"?>
<!DOCTYPE svg PUBLIC "-//W3C//DTD SVG 20010904//EN"
 "http://www.w3.org/TR/2001/REC-SVG-20010904/DTD/svg10.dtd">
<svg version="1.0" xmlns="http://www.w3.org/2000/svg"
 width="735.000000pt" height="420.000000pt" viewBox="0 0 735.000000 420.000000"
 preserveAspectRatio="xMidYMid meet">

<g transform="translate(0.000000,420.000000) scale(0.100000,-0.100000)"
fill="#000000" stroke="none">
<path d="M3335 3881 c-93 -7 -170 -20 -255 -41 -99 -26 -157 -43 -180 -54 -14
-7 -45 -19 -70 -27 -114 -35 -345 -168 -480 -277 -81 -66 -240 -222 -280 -276
-19 -26 -54 -73 -77 -104 -24 -32 -47 -66 -53 -77 -6 -11 -24 -42 -40 -70 -74
-124 -166 -350 -191 -470 -5 -22 -16 -76 -26 -120 -33 -150 -21 -681 16 -718
6 -6 11 -25 11 -41 1 -31 31 -130 44 -143 3 -3 6 -14 6 -24 0 -10 7 -35 16
-56 9 -21 20 -47 24 -58 15 -38 83 -170 96 -186 8 -8 14 -21 14 -27 0 -6 14
-31 30 -54 17 -24 42 -61 57 -83 43 -66 82 -111 198 -229 143 -144 306 -269
420 -321 22 -10 46 -23 53 -28 25 -19 205 -96 213 -91 11 7 12 37 1 49 -5 6
-17 33 -26 60 -16 46 -37 95 -57 137 -18 37 -2 37 69 3 29 -14 59 -25 67 -25
8 0 23 -4 33 -9 47 -24 154 -49 321 -76 118 -19 336 -19 432 -1 41 8 106 19
144 26 69 12 143 33 177 51 10 5 24 9 32 9 8 0 29 8 48 17 60 30 68 33 83 33
20 0 19 -6 -10 -65 -13 -27 -25 -56 -25 -62 0 -7 -12 -37 -26 -68 -26 -55 -27
-85 -1 -85 8 0 20 7 27 15 7 8 18 15 25 15 16 0 242 114 264 134 9 7 23 15 31
18 31 11 238 173 309 242 183 177 373 478 446 706 15 47 33 99 40 115 7 17 16
50 20 75 17 115 22 139 33 152 8 10 12 92 13 266 1 216 -1 256 -15 277 -9 13
-16 44 -16 68 0 23 -4 47 -9 52 -5 6 -11 28 -14 50 -4 39 -15 75 -44 142 -7
17 -13 38 -13 46 0 9 -4 19 -10 22 -5 3 -10 15 -10 25 0 37 -134 289 -192 360
-15 19 -28 40 -28 47 0 7 -6 16 -14 20 -8 4 -34 35 -59 68 -66 88 -249 259
-347 325 -20 14 -57 38 -81 55 -80 54 -275 155 -300 155 -8 0 -19 4 -25 8 -11
10 -76 33 -159 57 -33 9 -70 21 -83 26 -13 5 -36 9 -52 9 -16 0 -40 4 -54 10
-49 18 -350 31 -491 21z m420 -66 c294 -50 513 -132 723 -272 233 -154 377
-298 526 -523 49 -73 128 -222 159 -300 5 -14 16 -38 23 -55 31 -72 60 -190
89 -355 18 -102 20 -424 4 -514 -17 -95 -40 -208 -50 -241 -41 -141 -79 -233
-164 -394 -53 -101 -183 -275 -276 -371 -73 -75 -189 -169 -294 -239 -100 -67
-253 -151 -274 -151 -15 0 -14 19 2 50 7 14 21 48 31 75 10 28 21 59 26 70 57
142 59 151 28 160 -85 22 -106 29 -133 40 -47 20 -100 35 -122 35 -49 0 -74
33 -35 47 129 45 323 182 431 305 92 104 225 314 251 398 62 194 75 258 87
415 7 99 -17 261 -66 452 -15 56 -99 217 -164 314 -116 173 -293 328 -477 419
-143 70 -200 92 -295 110 -33 6 -79 16 -102 21 -101 22 -362 7 -493 -28 -89
-24 -233 -78 -258 -96 -7 -6 -34 -22 -61 -36 -234 -126 -457 -384 -561 -646
-52 -133 -90 -327 -90 -465 0 -143 48 -371 106 -497 8 -17 14 -33 14 -36 0 -3
27 -51 60 -107 87 -148 163 -239 275 -329 111 -89 251 -181 278 -181 17 0 57
-29 57 -41 0 -5 -9 -9 -20 -9 -11 0 -53 -12 -93 -26 -78 -28 -126 -43 -169
-51 -42 -8 -52 -26 -35 -65 27 -62 39 -93 54 -138 8 -25 26 -71 40 -103 14
-31 24 -60 21 -63 -3 -2 -48 16 -99 42 -360 177 -649 470 -823 836 -31 64 -56
123 -56 132 0 8 -4 17 -9 20 -5 3 -11 16 -14 28 -3 13 -13 50 -22 83 -68 236
-92 521 -61 721 42 274 86 411 210 648 191 366 582 699 963 821 48 15 96 32
106 37 22 11 92 26 172 38 33 5 78 13 100 18 67 16 379 14 480 -3z m-100 -560
c90 -9 210 -40 315 -83 57 -23 95 -42 175 -86 54 -31 146 -103 216 -171 98
-96 105 -117 24 -74 -32 16 -55 19 -115 17 -71 -3 -75 -1 -87 22 -8 18 -9 39
-1 77 13 62 6 83 -24 83 -61 -1 -155 -56 -226 -135 -56 -62 -67 -52 -67 58 l0
82 -48 1 c-63 2 -118 -36 -135 -93 -7 -22 -12 -46 -12 -53 0 -7 -13 -28 -30
-47 -16 -18 -30 -40 -30 -48 0 -8 -9 -15 -20 -15 -12 0 -20 7 -20 16 0 18 -30
75 -45 86 -11 8 -20 316 -10 356 5 22 10 24 43 19 20 -4 64 -9 97 -12z m-413
-225 c45 -13 75 -52 84 -110 5 -29 16 -51 36 -68 15 -14 32 -39 36 -56 13 -50
36 -44 51 14 8 30 21 55 32 61 19 9 19 -9 19 -911 l0 -920 -345 0 c-340 0
-346 0 -375 22 -43 31 -73 93 -64 132 10 47 52 127 86 162 26 28 35 31 68 27
32 -5 40 -2 50 16 6 12 30 39 52 59 66 59 111 110 136 154 82 145 72 291 -27
381 -44 40 -78 48 -87 20 -11 -31 -76 -157 -103 -198 -39 -58 -41 -68 -22
-111 10 -22 21 -60 25 -86 6 -40 4 -49 -19 -77 -18 -21 -36 -31 -55 -31 -38 0
-55 25 -53 78 3 82 -24 114 -62 72 -14 -15 -16 -29 -11 -65 4 -25 5 -59 1 -74
-10 -48 -86 -67 -144 -36 -31 15 -41 33 -41 70 0 12 -9 43 -21 69 -21 48 -19
77 7 107 11 12 14 76 14 308 1 246 4 297 16 317 36 54 -24 60 -73 7 -28 -31
-36 -35 -44 -23 -14 22 1 167 22 215 24 55 94 115 134 115 23 0 85 33 85 45 0
16 -40 51 -67 60 -27 8 -30 33 -5 41 9 3 26 11 37 17 11 7 65 14 120 17 l100
5 -1 65 c-1 36 -3 74 -5 85 -4 18 1 20 40 17 62 -4 133 -45 196 -114 30 -32
58 -58 63 -58 5 0 17 24 27 53 15 44 16 60 7 87 -7 18 -9 36 -6 41 7 12 40 11
86 -1z m1279 -306 c19 -30 42 -67 51 -82 40 -61 57 -103 91 -212 49 -163 59
-225 59 -390 1 -243 -41 -398 -169 -629 -57 -102 -242 -315 -259 -298 -4 4 -3
22 3 40 14 47 -5 104 -65 190 -32 45 -36 47 -82 47 -39 0 -50 4 -55 19 -3 10
-24 31 -47 47 -53 37 -120 120 -154 192 -23 47 -27 71 -28 142 -1 47 3 98 7
113 10 36 84 117 107 117 13 0 36 -32 76 -107 31 -59 66 -120 77 -135 l20 -27
-21 -49 c-12 -27 -24 -68 -28 -90 -6 -38 -4 -44 29 -77 34 -34 68 -44 94 -27
20 13 34 64 28 102 -4 26 -2 40 9 49 26 22 36 2 36 -75 0 -68 2 -77 26 -99 31
-29 89 -33 133 -10 28 14 61 76 61 115 0 10 4 21 9 25 22 13 22 64 1 105 -20
40 -21 56 -21 328 0 232 -3 289 -15 306 -19 27 -18 36 4 36 21 0 57 -29 65
-52 9 -26 43 -22 51 5 10 37 7 77 -10 146 -30 117 -77 169 -175 195 -80 20
-76 54 11 92 35 15 41 11 81 -52z m-354 -1701 c6 -17 -188 -115 -271 -137 -32
-8 -60 -17 -63 -20 -12 -11 8 -36 28 -36 13 0 54 -11 93 -24 149 -49 222 -70
245 -71 100 -1 -79 -90 -281 -141 -322 -79 -621 -69 -943 34 -73 23 -195 80
-195 91 0 12 27 22 44 15 8 -3 24 0 36 6 20 11 53 21 249 80 52 16 72 17 105
9 23 -5 95 -16 161 -24 102 -11 122 -11 131 0 6 9 9 53 8 111 -2 54 1 102 5
108 11 13 644 13 648 -1z m-1309 -388 c29 -14 58 -25 65 -25 8 0 17 -3 21 -7
9 -9 116 -43 137 -43 9 0 30 -7 45 -15 16 -8 46 -15 67 -15 21 0 48 -5 60 -11
14 -8 87 -11 216 -11 203 2 274 -4 249 -19 -18 -12 -398 -11 -434 0 -16 5 -51
12 -77 15 -26 3 -62 10 -80 15 -18 5 -57 17 -87 25 -81 21 -155 48 -202 72
-14 8 -33 14 -42 14 -9 0 -16 7 -16 15 0 21 18 19 78 -10z m1372 10 c-7 -8
-21 -15 -32 -15 -17 0 -18 3 -8 15 7 8 21 15 32 15 17 0 18 -3 8 -15z m-60
-23 c0 -11 -72 -42 -98 -42 -12 0 -22 -4 -22 -10 0 -5 -8 -10 -19 -10 -10 0
-35 -7 -54 -15 -20 -8 -50 -15 -66 -15 -16 0 -33 -4 -36 -10 -3 -5 -31 -10
-62 -10 -70 0 -63 9 14 20 32 4 72 12 88 18 47 16 102 33 123 37 11 2 30 9 43
16 13 7 31 16 39 20 20 10 50 11 50 1z"/>
<path d="M3385 3751 c-3 -7 -28 -8 -63 -5 -101 11 -182 -48 -182 -132 0 -38 4
-46 43 -77 29 -24 57 -37 91 -42 74 -10 98 -24 94 -54 -7 -61 -102 -46 -161
25 -39 46 -50 44 -42 -8 7 -36 11 -73 14 -110 1 -13 24 -9 43 9 15 13 23 14
44 5 13 -7 35 -12 47 -12 34 0 122 45 141 71 18 27 21 87 5 122 -14 30 -90 76
-145 86 -24 5 -51 14 -59 21 -14 12 -14 15 1 31 10 11 30 19 47 19 34 0 87
-34 87 -56 0 -10 8 -14 23 -12 14 2 20 9 18 18 -2 8 -7 35 -10 59 -6 43 -23
63 -36 42z"/>
<path d="M3716 3751 c-4 -6 1 -22 10 -36 9 -14 13 -32 10 -41 -11 -29 -46
-197 -46 -221 0 -16 -8 -27 -25 -33 -14 -5 -25 -14 -25 -19 0 -15 35 -31 69
-31 16 0 40 -4 53 -9 78 -28 93 -21 65 32 -9 16 -11 42 -8 69 5 34 10 43 26
43 15 0 21 -8 23 -32 6 -66 35 -33 51 57 13 78 3 96 -34 56 -25 -27 -45 -28
-45 -2 0 8 7 19 15 26 8 7 15 23 15 36 0 42 21 37 70 -16 51 -55 55 -53 55 19
l0 43 -70 18 c-38 9 -95 23 -125 30 -30 7 -60 15 -66 17 -7 2 -15 0 -18 -6z"/>
<path d="M2980 3670 c-8 -14 -21 -20 -46 -20 -70 0 -153 -68 -154 -127 0 -82
56 -123 169 -123 38 0 76 -3 85 -6 23 -9 20 -51 -5 -65 -31 -16 -106 -5 -133
20 -29 27 -56 27 -56 1 0 -11 -7 -23 -15 -26 -9 -4 -15 -19 -15 -39 0 -33 -32
-85 -53 -85 -13 0 -67 72 -67 89 0 16 26 13 40 -4 14 -17 40 -20 40 -5 0 5
-19 38 -42 74 -48 74 -74 86 -64 32 9 -48 -7 -52 -38 -12 -35 46 -33 62 9 76
30 10 40 9 61 -5 44 -28 52 -3 15 44 -18 23 -37 41 -42 41 -5 0 -59 -32 -119
-72 -105 -69 -132 -98 -91 -98 11 0 32 -17 48 -37 40 -52 103 -148 103 -158 0
-5 8 -17 17 -27 15 -17 15 -20 0 -35 -15 -15 -18 -15 -39 0 -13 9 -63 54 -111
101 -73 69 -88 88 -82 105 12 40 -20 22 -75 -41 -30 -33 -63 -68 -72 -77 -10
-9 -30 -29 -45 -45 -16 -17 -43 -45 -60 -63 -40 -40 -42 -58 -8 -49 24 6 43
-7 149 -107 16 -15 32 -27 36 -27 3 0 17 -14 29 -31 17 -23 20 -34 12 -42 -8
-8 -14 -8 -23 1 -22 22 -29 12 -22 -36 5 -42 3 -52 -19 -78 -35 -40 -93 -39
-169 5 -88 50 -112 105 -64 150 21 20 31 22 66 16 37 -6 41 -5 38 11 -3 19
-97 75 -110 67 -5 -2 -8 -11 -8 -20 0 -9 -11 -31 -26 -50 -101 -133 -53 -280
109 -334 45 -15 88 -3 149 40 48 33 91 116 82 159 -5 25 -2 32 17 43 13 6 27
16 30 21 26 40 254 266 293 291 28 18 79 51 114 75 36 23 70 42 77 42 6 0 20
9 30 20 13 14 31 20 60 20 31 0 53 8 82 29 74 54 89 98 57 167 -23 48 -65 67
-150 70 -40 1 -77 5 -83 8 -18 11 -13 34 11 50 32 22 60 20 102 -9 64 -43 70
-32 31 52 -28 57 -38 64 -55 33z m-640 -511 c51 -42 54 -52 18 -79 l-30 -22
-34 33 c-46 44 -46 94 -1 98 5 1 26 -13 47 -30z m170 -180 c0 -44 -41 -44 -90
-1 -45 39 -49 53 -20 82 l21 21 44 -38 c33 -27 45 -45 45 -64z"/>
<path d="M4046 3664 c-3 -8 -2 -23 3 -32 6 -12 3 -29 -9 -54 -9 -20 -32 -71
-49 -115 -18 -43 -44 -88 -57 -101 -14 -12 -23 -26 -20 -31 3 -5 63 -32 133
-61 127 -52 172 -78 266 -152 81 -64 173 -74 238 -25 17 12 46 45 65 75 31 46
35 58 29 93 -10 56 -56 112 -164 196 -93 73 -120 83 -99 37 10 -21 8 -28 -14
-52 -14 -15 -52 -63 -84 -107 -63 -88 -74 -99 -88 -85 -5 5 0 20 13 36 27 34
12 58 -18 30 -22 -20 -97 -24 -114 -7 -9 9 -8 16 1 31 6 11 12 28 12 39 0 22
25 45 40 36 6 -4 8 -20 4 -41 -11 -57 26 -41 46 21 7 22 19 50 27 62 15 23 10
43 -10 43 -7 0 -18 -10 -25 -21 -10 -15 -17 -18 -24 -11 -13 13 21 102 39 102
17 0 63 -59 63 -82 0 -34 31 -16 46 27 7 22 14 41 14 42 0 6 -104 55 -157 74
-32 12 -65 28 -74 35 -20 18 -25 18 -33 -2z m462 -286 c7 -7 12 -33 12 -58 0
-81 -83 -174 -149 -168 -50 4 -51 29 -4 82 21 24 56 69 77 100 42 60 46 62 64
44z"/>
<path d="M4730 3201 c0 -16 -68 -83 -159 -157 -13 -10 -29 -25 -36 -31 -8 -7
-25 -13 -39 -13 -36 0 -33 -16 17 -70 57 -64 108 -127 129 -159 19 -28 24 -38
57 -113 23 -54 36 -60 52 -24 12 26 74 65 85 53 4 -4 -14 -35 -40 -68 l-48
-62 22 -41 c12 -22 24 -62 27 -89 7 -59 18 -67 49 -33 36 38 59 34 81 -16 7
-15 10 -34 7 -42 -7 -19 -56 -38 -85 -34 -17 2 -23 -2 -22 -12 4 -25 23 -114
29 -132 7 -22 27 -23 44 -3 7 9 49 37 94 63 45 27 112 68 149 93 60 39 67 47
62 69 -4 14 -12 31 -19 38 -10 11 -148 34 -288 49 -60 6 -61 17 -7 89 l41 56
22 -21 c34 -32 72 -27 113 14 45 45 43 64 -29 213 -54 114 -74 133 -93 90 -6
-13 -48 -40 -105 -69 -52 -26 -100 -52 -107 -58 -15 -14 -53 -14 -53 -1 0 6
11 15 24 19 20 8 36 29 36 48 0 3 -16 3 -37 0 -39 -7 -93 17 -93 41 0 16 63
82 79 82 15 0 14 -22 -4 -46 -41 -54 9 -44 73 16 64 60 70 91 10 59 -36 -19
-45 6 -12 35 41 36 65 42 81 20 15 -21 17 -70 3 -79 -14 -9 -12 -35 3 -35 7 0
30 17 50 38 l37 38 -41 44 c-22 25 -61 71 -86 103 -47 58 -73 72 -73 38z m286
-445 c8 -20 -12 -53 -37 -61 -53 -17 -96 25 -45 45 13 5 27 14 31 19 9 16 45
13 51 -3z m12 -368 c-7 -21 -36 -34 -49 -21 -6 6 -8 16 -5 22 10 15 59 14 54
-1z"/>
<path d="M1825 2378 c-2 -7 -6 -34 -10 -60 -7 -55 6 -69 38 -41 18 16 36 19
96 18 84 -1 100 -15 49 -41 -18 -9 -68 -40 -110 -67 -70 -46 -77 -54 -82 -89
-3 -21 -9 -56 -12 -78 -5 -33 -3 -40 11 -40 9 0 24 9 33 20 16 19 24 19 147
12 102 -5 130 -10 130 -21 0 -8 -13 -19 -30 -24 -16 -5 -41 -18 -55 -27 -14
-10 -67 -39 -118 -65 -52 -26 -96 -54 -99 -62 -3 -9 -2 -27 3 -41 10 -26 16
-29 204 -68 155 -32 186 -50 118 -67 -18 -5 -37 -13 -43 -18 -5 -5 -17 -9 -27
-9 -10 0 -26 -4 -36 -9 -63 -33 -100 -43 -120 -32 -47 25 -53 8 -22 -57 11
-22 20 -49 20 -60 0 -10 6 -27 14 -37 14 -19 15 -19 38 6 15 16 55 36 106 52
45 15 100 35 120 45 29 14 44 16 60 9 12 -6 25 -7 28 -4 7 7 -11 60 -50 150
-9 21 -16 51 -16 67 0 23 -5 30 -19 30 -10 0 -21 -7 -25 -15 -3 -9 -18 -15
-36 -15 -55 0 -66 81 -13 101 13 5 36 6 50 3 l25 -7 -8 79 c-5 44 -7 100 -6
127 3 51 -2 55 -35 32 -25 -18 -184 -17 -190 1 -2 5 14 19 34 30 54 28 178
110 190 126 6 7 13 27 16 44 11 56 -2 62 -162 68 -126 5 -147 8 -166 26 -25
23 -34 25 -40 8z m213 -605 c2 -8 -6 -13 -22 -13 -17 0 -26 5 -26 16 0 19 41
16 48 -3z"/>
<path d="M5114 2189 c-4 -7 5 -22 25 -38 17 -14 31 -34 31 -43 0 -16 -13 -18
-140 -18 -116 0 -142 3 -146 15 -7 18 -34 20 -35 3 -2 -40 3 -183 7 -187 2 -2
15 6 28 18 22 20 32 22 155 20 130 -2 131 -2 131 -25 0 -16 -10 -28 -31 -39
-47 -25 -35 -51 21 -47 74 4 70 -5 70 171 0 88 -3 162 -7 164 -22 13 -102 17
-109 6z"/>
<path d="M4833 1828 c-31 -134 -27 -163 17 -123 17 16 24 15 158 -16 26 -6 65
-15 86 -19 22 -4 46 -16 53 -26 12 -16 15 -16 27 -4 8 8 18 40 24 70 6 30 13
65 17 78 6 17 3 22 -12 22 -10 0 -24 -5 -30 -11 -11 -11 -43 -6 -170 27 -28 8
-63 14 -77 14 -15 0 -31 8 -38 20 -23 36 -43 24 -55 -32z"/>
<path d="M4826 1636 c-27 -19 -63 -56 -79 -82 -27 -40 -31 -56 -31 -113 0 -54
5 -74 26 -107 32 -51 112 -94 173 -94 97 0 205 121 205 231 0 98 -81 178 -195
193 -46 7 -54 5 -99 -28z m134 -130 c72 -36 90 -53 90 -86 0 -52 -48 -67 -128
-39 -73 25 -130 63 -145 96 -10 22 -8 28 13 45 33 27 97 21 170 -16z"/>
<path d="M2178 1472 c-55 -36 -70 -67 -65 -130 3 -31 8 -68 12 -82 4 -15 1
-32 -8 -44 -18 -25 -51 -8 -66 35 -9 27 -8 38 9 66 35 60 22 80 -28 45 -15
-10 -35 -22 -44 -25 -24 -9 -23 -39 2 -55 11 -7 20 -22 20 -35 0 -52 87 -137
141 -137 27 0 65 23 90 54 24 29 29 101 12 159 -13 45 -13 51 3 68 22 24 36
24 58 0 33 -36 31 -102 -6 -152 -6 -9 -8 -24 -4 -34 6 -17 8 -17 29 4 13 11
29 21 35 21 19 0 14 -25 -8 -45 -11 -10 -20 -21 -20 -25 0 -7 -86 -159 -115
-203 -14 -22 -14 -26 6 -50 31 -40 19 -43 309 72 26 10 60 16 78 13 20 -3 32
0 32 7 0 14 -71 101 -81 101 -4 0 -10 -13 -14 -29 -3 -15 -17 -34 -31 -41 -23
-13 -27 -11 -56 17 -31 31 -31 32 -14 58 9 14 28 30 42 35 13 5 24 12 24 16 0
6 -48 63 -106 125 -13 14 -24 33 -24 43 0 9 -7 31 -16 49 -38 74 -89 117 -139
117 -16 0 -42 -8 -57 -18z m260 -464 c-2 -15 -11 -24 -25 -26 -25 -4 -31 16
-11 36 20 20 40 14 36 -10z"/>
<path d="M4622 1301 c-18 -22 -32 -45 -32 -50 0 -14 23 -14 37 0 12 12 65 -11
80 -34 4 -7 25 -23 45 -37 21 -14 38 -30 38 -36 0 -7 -47 -9 -144 -6 l-145 4
-25 -27 c-14 -15 -26 -35 -25 -44 0 -9 32 -41 70 -71 147 -114 169 -135 169
-157 0 -33 24 -28 54 11 34 45 35 69 1 60 -18 -4 -33 1 -56 20 -17 15 -44 33
-60 42 -55 28 -33 35 101 33 l129 -1 50 54 c61 64 65 81 17 72 -37 -6 -53 3
-166 99 -73 62 -80 70 -80 89 0 30 -25 21 -58 -21z"/>
</g>
</svg>
