<?xml version="1.0" standalone="no"?>
<!DOCTYPE svg PUBLIC "-//W3C//DTD SVG 20010904//EN"
 "http://www.w3.org/TR/2001/REC-SVG-20010904/DTD/svg10.dtd">
<svg version="1.0" xmlns="http://www.w3.org/2000/svg"
 width="314.000000pt" height="183.000000pt" viewBox="0 0 314.000000 183.000000"
 preserveAspectRatio="xMidYMid meet">

<g transform="translate(0.000000,183.000000) scale(0.100000,-0.100000)"
fill="#000000" stroke="none">
<path d="M500 1355 l0 -75 -80 0 -80 0 0 -75 0 -75 80 0 80 0 0 75 0 75 75 0
75 0 0 -75 0 -75 75 0 75 0 0 75 0 75 -75 0 -75 0 0 75 0 75 -75 0 -75 0 0
-75z"/>
<path d="M810 1355 l0 -75 75 0 75 0 0 -75 0 -75 75 0 75 0 0 75 0 75 -75 0
-75 0 0 75 0 75 -75 0 -75 0 0 -75z"/>
<path d="M1120 1355 l0 -75 150 0 150 0 0 75 0 75 -150 0 -150 0 0 -75z"/>
<path d="M1920 1419 c-113 -22 -257 -124 -316 -225 -55 -94 -80 -229 -58 -319
32 -135 151 -213 312 -203 97 6 161 37 226 109 26 28 45 53 43 55 -2 2 -25
-17 -52 -42 -66 -64 -114 -84 -203 -84 -147 0 -232 88 -232 242 0 167 112 365
239 421 114 50 234 26 271 -55 11 -24 20 -61 20 -82 0 -62 15 -32 39 77 26
122 26 125 -2 99 -28 -27 -36 -27 -115 -2 -68 21 -100 23 -172 9z"/>
<path d="M2380 1398 c45 -13 60 -25 60 -52 0 -12 -22 -99 -50 -193 -73 -255
-77 -281 -56 -336 25 -65 49 -92 111 -123 50 -24 63 -26 138 -22 96 5 145 27
199 86 51 56 72 108 143 347 81 273 84 280 147 295 22 5 -6 8 -82 8 -96 0
-109 -2 -81 -11 65 -21 65 -14 -42 -387 -35 -120 -94 -229 -145 -265 -38 -26
-54 -30 -120 -33 -68 -3 -81 -1 -112 20 -55 37 -80 82 -80 143 0 63 108 444
137 484 12 16 37 31 64 38 39 10 26 11 -111 11 -120 0 -147 -2 -120 -10z"/>
<path d="M30 1205 l0 -75 80 0 81 0 -3 73 -3 72 -77 3 -78 3 0 -76z"/>
<path d="M190 1045 l0 -75 75 0 75 0 0 75 0 75 -75 0 -75 0 0 -75z"/>
<path d="M500 1045 l0 -75 75 0 75 0 0 -75 0 -75 -75 0 -75 0 0 -80 0 -80 75
0 75 0 0 80 0 80 75 0 75 0 0 75 0 75 -75 0 -75 0 0 75 0 75 -75 0 -75 0 0
-75z"/>
<path d="M810 1045 l0 -75 75 0 75 0 0 -155 0 -155 230 0 230 0 0 80 0 80
-155 0 -155 0 0 75 0 75 -75 0 -75 0 0 75 0 75 -75 0 -75 0 0 -75z"/>
<path d="M1120 1045 l0 -75 150 0 150 0 0 75 0 75 -150 0 -150 0 0 -75z"/>
<path d="M168 528 c7 -9 2 -41 -18 -105 l-27 -93 77 0 c72 0 78 2 88 25 l11
24 -32 -19 c-18 -11 -45 -20 -61 -20 -27 0 -28 1 -21 37 4 21 9 41 11 45 9 14
43 8 52 -8 8 -14 11 -11 21 16 6 18 11 34 11 36 0 1 -14 -4 -31 -13 -38 -19
-42 -15 -33 32 8 43 25 53 62 34 15 -7 30 -15 35 -17 4 -2 7 6 7 17 0 20 -6
21 -81 21 -64 0 -79 -3 -71 -12z"/>
<path d="M1756 434 c-15 -53 -25 -98 -23 -101 6 -5 39 103 52 165 13 62 -2 31
-29 -64z"/>
<path d="M1571 490 c-47 -48 -51 -123 -7 -152 23 -16 27 -7 7 18 -12 15 -21
35 -21 46 0 22 25 75 48 101 25 29 6 19 -27 -13z"/>
<path d="M1695 510 c3 -5 8 -10 11 -10 2 0 4 5 4 10 0 6 -5 10 -11 10 -5 0 -7
-4 -4 -10z"/>
<path d="M2335 444 c-19 -76 -16 -102 14 -112 10 -3 10 0 0 17 -13 20 -8 64
17 149 3 12 2 22 -3 22 -5 0 -17 -34 -28 -76z"/>
<path d="M2725 510 c-3 -5 -1 -10 4 -10 6 0 11 5 11 10 0 6 -2 10 -4 10 -3 0
-8 -4 -11 -10z"/>
<path d="M362 463 c-6 -2 -10 -8 -8 -12 3 -4 -1 -32 -9 -61 -20 -77 -4 -92 47
-43 l28 27 0 -27 c0 -31 20 -36 44 -11 18 17 21 28 6 19 -13 -8 -13 3 4 58 7
25 12 48 9 51 -12 12 -34 -9 -51 -48 -21 -45 -52 -79 -52 -55 0 8 7 35 15 62
13 43 13 47 -3 46 -9 0 -23 -3 -30 -6z"/>
<path d="M539 463 c-1 -5 -1 -11 -1 -14 1 -3 -5 -30 -13 -60 -8 -30 -15 -55
-15 -56 0 -2 8 -3 18 -3 17 0 50 65 39 77 -3 2 -1 18 3 34 7 25 6 29 -11 29
-10 0 -20 -3 -20 -7z"/>
<path d="M585 438 c-14 -25 -15 -30 -3 -20 9 7 22 11 29 10 8 -2 15 7 17 20 5
33 -21 27 -43 -10z"/>
<path d="M688 453 c-29 -18 -48 -52 -48 -86 0 -56 56 -63 106 -13 71 71 24
150 -58 99z m49 -33 c-5 -43 -31 -90 -47 -90 -16 0 -12 56 7 95 24 50 47 47
40 -5z"/>
<path d="M829 468 c0 -2 -3 -14 -5 -28 -2 -14 -15 -60 -28 -103 l-24 -77 23 0
c18 0 24 6 27 27 2 22 10 29 38 34 57 12 102 88 79 131 -11 21 -40 23 -57 6
-9 -9 -12 -9 -12 0 0 10 -38 18 -41 10z m71 -50 c0 -42 -20 -82 -44 -86 -16
-4 -18 1 -12 35 8 42 31 83 46 83 6 0 10 -15 10 -32z"/>
<path d="M1014 451 c-32 -20 -58 -67 -52 -97 7 -38 59 -43 103 -10 18 14 17
14 -13 3 -27 -10 -34 -9 -42 3 -16 25 15 110 40 110 17 0 11 -29 -10 -50 -16
-16 -17 -20 -5 -20 21 0 68 47 62 63 -6 20 -50 19 -83 -2z"/>
<path d="M1156 458 c-40 -22 -63 -122 -30 -135 8 -3 23 2 32 11 10 10 12 16 4
16 -7 0 -12 11 -12 25 0 30 26 85 40 85 15 0 11 -51 -4 -80 -25 -44 14 -81 45
-43 10 11 10 14 2 9 -17 -9 -16 0 2 60 8 27 15 52 15 55 0 10 -75 7 -94 -3z"/>
<path d="M1302 463 c-6 -2 -10 -8 -7 -13 3 -4 -2 -30 -10 -56 -20 -65 -19 -73
5 -67 11 3 20 10 20 17 0 6 6 22 13 36 29 57 19 99 -21 83z"/>
<path d="M1359 443 c-13 -15 -16 -21 -6 -14 26 20 29 10 13 -41 -17 -59 -8
-78 28 -54 29 18 34 29 11 20 -12 -5 -12 0 1 40 26 75 0 101 -47 49z"/>
<path d="M1827 423 c-4 -21 -9 -50 -13 -65 -4 -19 -2 -28 5 -28 7 0 10 4 7 9
-3 5 1 30 9 57 8 27 11 52 6 57 -4 4 -11 -9 -14 -30z"/>
<path d="M2622 450 c3 -8 -1 -35 -8 -60 -16 -53 -17 -60 -6 -60 14 0 33 113
21 125 -8 7 -10 6 -7 -5z"/>
<path d="M3022 431 c0 -16 -5 -39 -11 -50 -14 -26 -14 -51 1 -51 6 0 9 3 5 6
-3 3 1 28 10 56 9 31 11 54 5 60 -5 5 -9 -3 -10 -21z"/>
<path d="M1983 443 c4 -3 0 -15 -10 -25 -20 -22 -11 -24 11 -2 19 18 21 34 4
34 -6 0 -8 -3 -5 -7z"/>
<path d="M2041 437 c-1 -11 7 -31 18 -45 10 -15 21 -34 24 -42 3 -9 6 -4 6 11
1 15 -6 33 -15 40 -9 7 -20 22 -24 34 -8 18 -9 18 -9 2z"/>
<path d="M2163 435 c-3 -9 2 -24 10 -33 9 -10 20 -28 25 -41 7 -19 10 -21 15
-9 3 9 -5 30 -18 48 -14 18 -22 37 -19 41 3 5 3 9 -1 9 -3 0 -8 -7 -12 -15z"/>
<path d="M2543 408 c-7 -24 -14 -52 -18 -63 -3 -11 1 -7 10 9 9 15 19 40 21
54 3 14 7 29 10 34 3 4 1 8 -3 8 -5 0 -14 -19 -20 -42z"/>
<path d="M2701 408 c-7 -24 -15 -51 -17 -60 -3 -10 -2 -18 3 -18 9 0 37 109
30 116 -2 2 -9 -15 -16 -38z"/>
<path d="M2871 420 c-1 -20 -8 -46 -17 -58 -9 -13 -11 -22 -4 -22 5 0 18 16
27 35 13 27 14 39 5 57 -10 22 -11 21 -11 -12z"/>
<path d="M2942 413 c-6 -21 -14 -49 -17 -63 l-6 -25 14 25 c14 24 32 100 24
100 -2 0 -9 -17 -15 -37z"/>
<path d="M2777 411 c-20 -35 -22 -55 -4 -70 11 -8 13 -5 9 19 -2 18 2 40 12
55 9 14 13 25 8 25 -4 0 -15 -13 -25 -29z"/>
<path d="M1902 418 c-18 -24 -24 -59 -12 -73 18 -22 32 -18 18 5 -10 15 -10
27 -1 50 12 32 11 37 -5 18z"/>
<path d="M2130 340 c0 -5 5 -10 11 -10 5 0 7 5 4 10 -3 6 -8 10 -11 10 -2 0
-4 -4 -4 -10z"/>
</g>
</svg>
