<?xml version="1.0" standalone="no"?>
<!DOCTYPE svg PUBLIC "-//W3C//DTD SVG 20010904//EN"
 "http://www.w3.org/TR/2001/REC-SVG-20010904/DTD/svg10.dtd">
<svg version="1.0" xmlns="http://www.w3.org/2000/svg"
 width="500.000000pt" height="500.000000pt" viewBox="0 0 500.000000 500.000000"
 preserveAspectRatio="xMidYMid meet">

<g transform="translate(0.000000,500.000000) scale(0.100000,-0.100000)"
fill="#000000" stroke="none">
<path d="M2710 4540 c-11 -11 -20 -28 -20 -38 0 -11 -9 -27 -20 -37 -11 -10
-20 -24 -20 -30 0 -7 -6 -18 -14 -24 -8 -7 -26 -38 -41 -69 -15 -31 -31 -65
-36 -74 -42 -82 -68 -143 -74 -170 -3 -19 -14 -30 -31 -34 -32 -8 -34 -6 -40
52 -13 104 -43 224 -63 250 -12 15 -21 34 -21 42 0 9 -10 31 -22 49 -30 44
-75 43 -97 -2 -8 -16 -18 -38 -23 -48 -5 -10 -13 -71 -19 -135 -5 -64 -14
-135 -20 -157 -10 -35 -38 -211 -39 -242 0 -19 47 -16 54 3 3 9 6 42 6 74 0
31 7 74 15 93 8 20 17 75 21 124 8 129 49 233 75 192 5 -8 9 -23 9 -34 0 -11
7 -33 15 -48 8 -16 17 -52 21 -80 3 -29 10 -65 15 -82 22 -66 38 -178 32 -224
-8 -71 10 -75 67 -15 39 40 48 58 54 99 4 28 13 59 21 69 8 11 15 28 15 37 0
10 19 55 41 101 23 46 53 107 68 136 31 63 54 87 76 78 12 -4 16 -19 14 -58 0
-29 2 -153 6 -276 4 -148 3 -240 -4 -274 -13 -59 -4 -78 39 -78 33 0 77 -14
150 -48 51 -23 97 -38 190 -62 19 -5 52 -10 74 -10 21 0 59 -7 85 -15 335
-109 344 -113 361 -145 8 -15 6 -21 -9 -30 -11 -5 -27 -10 -36 -10 -24 0 -125
-68 -163 -109 -34 -37 -62 -91 -62 -119 0 -8 6 -23 14 -31 7 -9 21 -43 31 -76
24 -83 59 -140 100 -159 19 -9 37 -21 40 -26 10 -16 93 -12 128 6 106 55 157
134 157 245 0 50 -5 72 -19 90 -10 13 -22 35 -26 49 -4 14 -14 33 -22 42 -36
41 18 78 60 41 27 -23 81 -53 96 -53 6 0 40 -13 74 -30 35 -16 70 -30 78 -30
25 0 338 -135 419 -181 111 -62 191 -135 252 -229 54 -84 65 -110 75 -177 9
-55 7 -67 -13 -111 -25 -55 -110 -142 -197 -202 -32 -22 -59 -40 -62 -40 -3 0
-38 -15 -77 -34 -170 -79 -402 -120 -753 -131 -104 -4 -207 -11 -227 -16 -40
-10 -214 2 -321 23 -54 10 -59 10 -82 -12 -32 -30 -32 -65 -1 -85 20 -13 29
-14 46 -5 13 7 109 13 263 15 133 3 280 9 327 14 47 6 126 12 175 15 270 14
436 49 595 124 128 60 200 111 303 215 109 110 138 205 95 307 -25 58 -28 64
-53 105 -13 22 -31 55 -39 74 -9 19 -50 67 -92 107 -69 67 -111 97 -225 160
-40 23 -215 97 -284 121 -22 7 -49 18 -60 23 -62 28 -119 50 -129 50 -12 0
-45 17 -181 90 -212 114 -317 163 -425 195 -66 20 -97 24 -137 19 -39 -5 -59
-2 -75 8 -13 8 -43 18 -68 21 -43 6 -183 68 -195 87 -3 4 -23 11 -45 15 -50 8
-75 41 -67 88 3 17 1 109 -5 202 -5 94 -11 199 -13 235 -4 83 -15 189 -22 218
-7 28 -36 29 -63 2z m868 -1278 c2 -11 -4 -34 -12 -51 -9 -17 -16 -55 -16 -89
0 -63 12 -83 58 -97 29 -8 25 -39 -5 -43 -15 -2 -36 11 -68 43 -47 45 -47 46
-40 97 7 46 5 53 -16 69 -23 17 -23 17 -4 40 25 28 77 60 90 56 6 -2 11 -13
13 -25z m160 -215 c2 -19 -1 -27 -13 -27 -19 0 -30 24 -21 46 9 23 31 11 34
-19z"/>
<path d="M1974 3762 c-23 -15 -73 -46 -110 -70 -38 -24 -97 -62 -132 -85 -34
-23 -88 -58 -119 -77 -65 -41 -255 -223 -338 -325 -70 -85 -132 -180 -188
-285 -16 -30 -41 -72 -56 -94 -14 -21 -30 -46 -36 -55 -5 -8 -36 -48 -67 -87
-32 -40 -58 -75 -58 -77 0 -3 -33 -53 -72 -112 -40 -59 -78 -115 -84 -126 -6
-10 -18 -27 -27 -37 -10 -10 -17 -23 -17 -29 0 -5 -9 -18 -20 -28 -11 -10 -20
-23 -20 -30 0 -11 -11 -27 -57 -85 -13 -15 -23 -32 -23 -36 0 -5 -18 -36 -40
-69 -22 -33 -40 -65 -40 -72 0 -6 -11 -33 -25 -59 -14 -26 -25 -55 -25 -65 0
-10 -4 -20 -9 -23 -19 -12 -60 -114 -66 -166 -4 -30 -13 -66 -20 -80 -7 -14
-16 -50 -20 -80 -4 -30 -11 -59 -15 -65 -4 -5 -13 -35 -20 -65 -7 -30 -16 -59
-20 -65 -4 -5 -15 -36 -24 -67 -9 -31 -20 -59 -25 -63 -5 -3 -12 -23 -16 -45
-4 -22 -22 -77 -41 -122 -36 -88 -42 -118 -21 -118 42 0 82 81 102 207 4 24
11 45 15 48 10 6 54 150 64 207 4 21 16 57 26 80 11 24 20 56 20 71 0 15 7 41
15 57 9 16 18 51 22 77 3 27 14 64 25 83 10 19 18 42 18 50 0 8 9 29 20 45 11
17 20 40 20 51 0 12 6 27 14 33 8 7 18 27 22 44 3 18 15 43 25 56 11 13 19 29
19 36 0 6 9 20 20 30 11 10 20 23 20 29 0 7 9 19 20 29 11 9 20 25 20 36 0 10
7 24 16 31 8 8 22 27 29 44 16 33 66 106 119 171 18 22 36 50 40 63 4 12 12
22 17 22 5 0 13 8 17 18 9 22 29 51 122 170 84 108 139 190 164 242 33 69 99
175 116 185 5 3 36 39 67 78 64 81 220 239 273 277 19 13 58 39 85 57 28 18
56 37 63 44 14 12 48 31 169 94 95 51 123 73 123 101 0 32 -23 30 -76 -4z"/>
<path d="M2557 3359 c-56 -13 -177 -74 -216 -109 -37 -33 -56 -30 -85 15 -23
35 -72 35 -88 -1 -12 -25 -10 -29 27 -59 36 -31 38 -35 27 -60 -19 -41 -16
-85 6 -85 10 0 23 5 29 11 16 16 53 -7 65 -42 21 -60 133 -88 283 -71 105 12
184 49 224 104 17 23 31 53 31 67 -1 44 -56 153 -101 198 -41 42 -44 43 -103
42 -34 -1 -78 -5 -99 -10z m147 -120 c22 -10 46 -67 46 -108 0 -20 -62 -81
-82 -81 -18 0 -20 4 -14 38 3 20 6 65 6 100 0 65 4 69 44 51z m-208 -66 c-1
-38 3 -78 7 -90 6 -16 3 -27 -12 -42 -17 -17 -25 -19 -48 -10 -39 14 -93 69
-93 93 1 28 19 51 71 86 68 46 76 42 75 -37z"/>
<path d="M3165 2718 c-36 -28 -30 -63 18 -102 38 -30 74 -37 212 -39 31 -1
174 37 205 53 22 12 34 68 18 87 -14 17 -65 10 -112 -14 -45 -23 -204 -23
-239 0 -53 35 -73 38 -102 15z"/>
<path d="M2961 2034 c-25 -31 -27 -71 -5 -99 12 -16 14 -44 9 -158 -4 -77 -10
-149 -15 -161 -4 -12 -11 -80 -15 -151 -4 -72 -11 -150 -17 -175 -5 -25 -16
-94 -24 -155 -7 -60 -20 -135 -29 -165 -8 -30 -15 -64 -15 -75 0 -11 -9 -48
-21 -80 -13 -38 -22 -93 -25 -150 -4 -109 -10 -115 -107 -115 -37 0 -78 -5
-90 -12 -12 -6 -75 -17 -142 -25 -66 -7 -154 -20 -195 -29 -67 -15 -116 -18
-167 -13 -10 1 -57 -2 -105 -6 -57 -5 -102 -4 -130 3 -24 7 -149 14 -278 16
-223 4 -419 24 -545 55 -49 12 -139 29 -225 43 -73 11 -162 32 -231 53 -26 8
-53 15 -60 15 -16 0 -128 56 -185 93 -44 28 -67 49 -107 96 -26 31 -29 32 -57
21 -44 -18 -40 -56 11 -100 23 -19 59 -51 81 -72 22 -20 75 -53 117 -73 42
-20 83 -40 91 -44 65 -34 278 -73 323 -60 45 13 89 11 128 -5 19 -8 59 -17 89
-21 30 -4 66 -12 80 -18 25 -10 214 -26 385 -31 100 -4 283 -21 390 -37 95
-14 305 -12 341 2 16 7 74 16 129 20 99 7 285 30 394 48 31 5 73 10 95 10 66
1 89 43 40 76 -18 11 -23 22 -19 33 4 9 11 46 16 82 17 139 30 204 40 217 7 7
16 54 21 104 5 51 15 104 23 119 9 17 16 78 20 166 3 76 12 162 20 189 13 49
36 283 37 380 1 114 -8 196 -23 206 -21 13 -26 12 -48 -17z"/>
</g>
</svg>
